<svg width="348" height="113" viewBox="0 0 348 113" fill="none" xmlns="http://www.w3.org/2000/svg">
<path d="M20.1562 64.9531V89H6.09375V20.75H32.7188C37.8438 20.75 42.3438 21.6875 46.2188 23.5625C50.125 25.4375 53.125 28.1094 55.2188 31.5781C57.3125 35.0156 58.3594 38.9375 58.3594 43.3438C58.3594 50.0312 56.0625 55.3125 51.4688 59.1875C46.9062 63.0312 40.5781 64.9531 32.4844 64.9531H20.1562ZM20.1562 53.5625H32.7188C36.4375 53.5625 39.2656 52.6875 41.2031 50.9375C43.1719 49.1875 44.1562 46.6875 44.1562 43.4375C44.1562 40.0938 43.1719 37.3906 41.2031 35.3281C39.2344 33.2656 36.5156 32.2031 33.0469 32.1406H20.1562V53.5625ZM97.5469 83.8438C94.2031 87.9062 89.5781 89.9375 83.6719 89.9375C78.2344 89.9375 74.0781 88.375 71.2031 85.25C68.3594 82.125 66.9062 77.5469 66.8438 71.5156V38.2812H80.3906V71.0469C80.3906 76.3281 82.7969 78.9688 87.6094 78.9688C92.2031 78.9688 95.3594 77.375 97.0781 74.1875V38.2812H110.672V89H97.9219L97.5469 83.8438ZM135.188 89H121.594V17H135.188V89ZM173.859 74.9844C173.859 73.3281 173.031 72.0312 171.375 71.0938C169.75 70.125 167.125 69.2656 163.5 68.5156C151.438 65.9844 145.406 60.8594 145.406 53.1406C145.406 48.6406 147.266 44.8906 150.984 41.8906C154.734 38.8594 159.625 37.3438 165.656 37.3438C172.094 37.3438 177.234 38.8594 181.078 41.8906C184.953 44.9219 186.891 48.8594 186.891 53.7031H173.344C173.344 51.7656 172.719 50.1719 171.469 48.9219C170.219 47.6406 168.266 47 165.609 47C163.328 47 161.562 47.5156 160.312 48.5469C159.062 49.5781 158.438 50.8906 158.438 52.4844C158.438 53.9844 159.141 55.2031 160.547 56.1406C161.984 57.0469 164.391 57.8438 167.766 58.5312C171.141 59.1875 173.984 59.9375 176.297 60.7812C183.453 63.4062 187.031 67.9531 187.031 74.4219C187.031 79.0469 185.047 82.7969 181.078 85.6719C177.109 88.5156 171.984 89.9375 165.703 89.9375C161.453 89.9375 157.672 89.1875 154.359 87.6875C151.078 86.1562 148.5 84.0781 146.625 81.4531C144.75 78.7969 143.812 75.9375 143.812 72.875H156.656C156.781 75.2812 157.672 77.125 159.328 78.4062C160.984 79.6875 163.203 80.3281 165.984 80.3281C168.578 80.3281 170.531 79.8438 171.844 78.875C173.188 77.875 173.859 76.5781 173.859 74.9844ZM219.141 89.9375C211.703 89.9375 205.641 87.6562 200.953 83.0938C196.297 78.5312 193.969 72.4531 193.969 64.8594V63.5469C193.969 58.4531 194.953 53.9062 196.922 49.9062C198.891 45.875 201.672 42.7812 205.266 40.625C208.891 38.4375 213.016 37.3438 217.641 37.3438C224.578 37.3438 230.031 39.5312 234 43.9062C238 48.2812 240 54.4844 240 62.5156V68.0469H207.703C208.141 71.3594 209.453 74.0156 211.641 76.0156C213.859 78.0156 216.656 79.0156 220.031 79.0156C225.25 79.0156 229.328 77.125 232.266 73.3438L238.922 80.7969C236.891 83.6719 234.141 85.9219 230.672 87.5469C227.203 89.1406 223.359 89.9375 219.141 89.9375ZM217.594 48.3125C214.906 48.3125 212.719 49.2188 211.031 51.0312C209.375 52.8438 208.312 55.4375 207.844 58.8125H226.688V57.7344C226.625 54.7344 225.812 52.4219 224.25 50.7969C222.688 49.1406 220.469 48.3125 217.594 48.3125Z" fill="#0094FF"/>
<path d="M236 71.6444C238.821 71.6444 243.22 71.6444 247.846 71.6444C254.785 71.6444 259.692 55.8482 265.615 71.6444C271.538 87.4405 272.385 40.0521 278.308 66.0393C284.231 92.0264 290.154 81.8354 297.769 53.3005C305.385 24.7655 313 63.4915 314.692 73.6826C316.385 83.8736 324.846 83.3641 329.923 71.6444C335 59.9246 346 71.6444 346 71.6444" stroke="#0094FF" stroke-width="4"/>
</svg>
